<mxfile host="app.diagrams.net" modified="2023-10-27T19:21:28.630Z" agent="Mozilla/5.0 (Windows NT 10.0; Win64; x64) AppleWebKit/537.36 (KHTML, like Gecko) Chrome/118.0.0.0 Safari/537.36" etag="4lMokn6YoyMtWxwWJzNt" version="22.0.8" type="device">
  <diagram id="R2lEEEUBdFMjLlhIrx00" name="Page-1">
    <mxGraphModel dx="1111" dy="1534" grid="1" gridSize="10" guides="1" tooltips="1" connect="1" arrows="1" fold="1" page="1" pageScale="1" pageWidth="850" pageHeight="1100" math="0" shadow="0" extFonts="Permanent Marker^https://fonts.googleapis.com/css?family=Permanent+Marker">
      <root>
        <mxCell id="0" />
        <mxCell id="1" parent="0" />
        <mxCell id="HkWMvWSEuvSJZ3O5xZ28-28" value="&lt;b&gt;POLICIA&lt;/b&gt;" style="whiteSpace=wrap;html=1;align=center;" parent="1" vertex="1">
          <mxGeometry x="80" y="-370" width="110" height="60" as="geometry" />
        </mxCell>
        <mxCell id="HkWMvWSEuvSJZ3O5xZ28-29" value="Nº Placa" style="ellipse;whiteSpace=wrap;html=1;align=center;fontStyle=4;" parent="1" vertex="1">
          <mxGeometry x="40" y="-470" width="100" height="40" as="geometry" />
        </mxCell>
        <mxCell id="HkWMvWSEuvSJZ3O5xZ28-30" value="DNI" style="ellipse;whiteSpace=wrap;html=1;align=center;" parent="1" vertex="1">
          <mxGeometry x="170" y="-470" width="100" height="40" as="geometry" />
        </mxCell>
        <mxCell id="HkWMvWSEuvSJZ3O5xZ28-32" value="Nom" style="ellipse;whiteSpace=wrap;html=1;align=center;" parent="1" vertex="1">
          <mxGeometry x="270" y="-400" width="100" height="40" as="geometry" />
        </mxCell>
        <mxCell id="HkWMvWSEuvSJZ3O5xZ28-38" value="&lt;b&gt;ARMA&lt;/b&gt;" style="whiteSpace=wrap;html=1;align=center;" parent="1" vertex="1">
          <mxGeometry x="600" y="-370" width="110" height="60" as="geometry" />
        </mxCell>
        <mxCell id="HkWMvWSEuvSJZ3O5xZ28-39" value="Codi" style="ellipse;whiteSpace=wrap;html=1;align=center;fontStyle=4;" parent="1" vertex="1">
          <mxGeometry x="550" y="-450" width="100" height="40" as="geometry" />
        </mxCell>
        <mxCell id="HkWMvWSEuvSJZ3O5xZ28-40" value="Classe" style="ellipse;whiteSpace=wrap;html=1;align=center;" parent="1" vertex="1">
          <mxGeometry x="680" y="-450" width="100" height="40" as="geometry" />
        </mxCell>
        <mxCell id="HkWMvWSEuvSJZ3O5xZ28-41" value="Nom" style="ellipse;whiteSpace=wrap;html=1;align=center;" parent="1" vertex="1">
          <mxGeometry x="710" y="-250" width="100" height="40" as="geometry" />
        </mxCell>
        <mxCell id="HkWMvWSEuvSJZ3O5xZ28-45" value="&lt;b&gt;DELINQÜENT&lt;/b&gt;" style="whiteSpace=wrap;html=1;align=center;" parent="1" vertex="1">
          <mxGeometry x="95" y="-200" width="120" height="60" as="geometry" />
        </mxCell>
        <mxCell id="HkWMvWSEuvSJZ3O5xZ28-46" value="DNI" style="ellipse;whiteSpace=wrap;html=1;align=center;fontStyle=4;" parent="1" vertex="1">
          <mxGeometry x="260" y="-180" width="100" height="40" as="geometry" />
        </mxCell>
        <mxCell id="HkWMvWSEuvSJZ3O5xZ28-47" value="Telefon" style="ellipse;whiteSpace=wrap;html=1;align=center;" parent="1" vertex="1">
          <mxGeometry x="260" width="100" height="40" as="geometry" />
        </mxCell>
        <mxCell id="HkWMvWSEuvSJZ3O5xZ28-48" value="Nom" style="ellipse;whiteSpace=wrap;html=1;align=center;" parent="1" vertex="1">
          <mxGeometry x="260" y="-100" width="100" height="40" as="geometry" />
        </mxCell>
        <mxCell id="HkWMvWSEuvSJZ3O5xZ28-49" value="Direcció" style="ellipse;whiteSpace=wrap;html=1;align=center;" parent="1" vertex="1">
          <mxGeometry x="260" y="-50" width="100" height="40" as="geometry" />
        </mxCell>
        <mxCell id="HkWMvWSEuvSJZ3O5xZ28-52" value="" style="endArrow=none;html=1;rounded=0;" parent="1" source="HkWMvWSEuvSJZ3O5xZ28-30" target="HkWMvWSEuvSJZ3O5xZ28-28" edge="1">
          <mxGeometry relative="1" as="geometry">
            <mxPoint x="460" y="-400" as="sourcePoint" />
            <mxPoint x="620" y="-400" as="targetPoint" />
          </mxGeometry>
        </mxCell>
        <mxCell id="HkWMvWSEuvSJZ3O5xZ28-53" value="" style="endArrow=none;html=1;rounded=0;" parent="1" source="HkWMvWSEuvSJZ3O5xZ28-29" target="HkWMvWSEuvSJZ3O5xZ28-28" edge="1">
          <mxGeometry relative="1" as="geometry">
            <mxPoint x="460" y="-300" as="sourcePoint" />
            <mxPoint x="620" y="-300" as="targetPoint" />
          </mxGeometry>
        </mxCell>
        <mxCell id="HkWMvWSEuvSJZ3O5xZ28-54" value="" style="endArrow=none;html=1;rounded=0;" parent="1" source="HkWMvWSEuvSJZ3O5xZ28-28" target="HkWMvWSEuvSJZ3O5xZ28-32" edge="1">
          <mxGeometry relative="1" as="geometry">
            <mxPoint x="460" y="-300" as="sourcePoint" />
            <mxPoint x="620" y="-300" as="targetPoint" />
          </mxGeometry>
        </mxCell>
        <mxCell id="HkWMvWSEuvSJZ3O5xZ28-55" value="" style="endArrow=none;html=1;rounded=0;" parent="1" source="HkWMvWSEuvSJZ3O5xZ28-39" target="HkWMvWSEuvSJZ3O5xZ28-38" edge="1">
          <mxGeometry relative="1" as="geometry">
            <mxPoint x="440" y="-305" as="sourcePoint" />
            <mxPoint x="600" y="-305" as="targetPoint" />
          </mxGeometry>
        </mxCell>
        <mxCell id="HkWMvWSEuvSJZ3O5xZ28-57" value="" style="endArrow=none;html=1;rounded=0;" parent="1" source="HkWMvWSEuvSJZ3O5xZ28-28" target="HkWMvWSEuvSJZ3O5xZ28-61" edge="1">
          <mxGeometry relative="1" as="geometry">
            <mxPoint x="460" y="-300" as="sourcePoint" />
            <mxPoint x="170" y="-270" as="targetPoint" />
          </mxGeometry>
        </mxCell>
        <mxCell id="HkWMvWSEuvSJZ3O5xZ28-61" value="Funció" style="ellipse;whiteSpace=wrap;html=1;align=center;" parent="1" vertex="1">
          <mxGeometry x="260" y="-330" width="100" height="40" as="geometry" />
        </mxCell>
        <mxCell id="HkWMvWSEuvSJZ3O5xZ28-62" value="" style="endArrow=none;html=1;rounded=0;" parent="1" source="HkWMvWSEuvSJZ3O5xZ28-46" target="HkWMvWSEuvSJZ3O5xZ28-45" edge="1">
          <mxGeometry relative="1" as="geometry">
            <mxPoint x="139" y="-247" as="sourcePoint" />
            <mxPoint x="650" y="-190" as="targetPoint" />
          </mxGeometry>
        </mxCell>
        <mxCell id="HkWMvWSEuvSJZ3O5xZ28-66" value="" style="endArrow=none;html=1;rounded=0;" parent="1" source="HkWMvWSEuvSJZ3O5xZ28-38" target="HkWMvWSEuvSJZ3O5xZ28-41" edge="1">
          <mxGeometry relative="1" as="geometry">
            <mxPoint x="460" y="-300" as="sourcePoint" />
            <mxPoint x="670" y="-320" as="targetPoint" />
          </mxGeometry>
        </mxCell>
        <mxCell id="HkWMvWSEuvSJZ3O5xZ28-67" value="" style="endArrow=none;html=1;rounded=0;" parent="1" source="HkWMvWSEuvSJZ3O5xZ28-38" target="HkWMvWSEuvSJZ3O5xZ28-40" edge="1">
          <mxGeometry relative="1" as="geometry">
            <mxPoint x="460" y="-300" as="sourcePoint" />
            <mxPoint x="620" y="-300" as="targetPoint" />
          </mxGeometry>
        </mxCell>
        <mxCell id="HkWMvWSEuvSJZ3O5xZ28-81" value="" style="endArrow=none;html=1;rounded=0;" parent="1" source="HkWMvWSEuvSJZ3O5xZ28-45" edge="1">
          <mxGeometry relative="1" as="geometry">
            <mxPoint x="460" as="sourcePoint" />
            <mxPoint x="155" y="-40" as="targetPoint" />
          </mxGeometry>
        </mxCell>
        <mxCell id="HkWMvWSEuvSJZ3O5xZ28-82" value="Dades" style="text;html=1;align=center;verticalAlign=middle;resizable=0;points=[];autosize=1;strokeColor=none;fillColor=none;" parent="1" vertex="1">
          <mxGeometry x="90" y="-102" width="60" height="30" as="geometry" />
        </mxCell>
        <mxCell id="HkWMvWSEuvSJZ3O5xZ28-83" value="" style="endArrow=none;html=1;rounded=0;entryX=0;entryY=0.5;entryDx=0;entryDy=0;" parent="1" target="HkWMvWSEuvSJZ3O5xZ28-48" edge="1">
          <mxGeometry relative="1" as="geometry">
            <mxPoint x="160" y="-40" as="sourcePoint" />
            <mxPoint x="620" as="targetPoint" />
          </mxGeometry>
        </mxCell>
        <mxCell id="HkWMvWSEuvSJZ3O5xZ28-84" value="" style="endArrow=none;html=1;rounded=0;" parent="1" target="HkWMvWSEuvSJZ3O5xZ28-49" edge="1">
          <mxGeometry relative="1" as="geometry">
            <mxPoint x="160" y="-40" as="sourcePoint" />
            <mxPoint x="290" y="-30" as="targetPoint" />
          </mxGeometry>
        </mxCell>
        <mxCell id="HkWMvWSEuvSJZ3O5xZ28-85" value="" style="endArrow=none;html=1;rounded=0;entryX=0;entryY=0.5;entryDx=0;entryDy=0;" parent="1" target="HkWMvWSEuvSJZ3O5xZ28-47" edge="1">
          <mxGeometry relative="1" as="geometry">
            <mxPoint x="150" y="-40" as="sourcePoint" />
            <mxPoint x="620" as="targetPoint" />
          </mxGeometry>
        </mxCell>
        <mxCell id="HkWMvWSEuvSJZ3O5xZ28-86" value="&lt;b&gt;CALABOZO&lt;/b&gt;" style="whiteSpace=wrap;html=1;align=center;" parent="1" vertex="1">
          <mxGeometry x="520" y="-170" width="120" height="68" as="geometry" />
        </mxCell>
        <mxCell id="HkWMvWSEuvSJZ3O5xZ28-87" value="Codi" style="ellipse;whiteSpace=wrap;html=1;align=center;fontStyle=4;" parent="1" vertex="1">
          <mxGeometry x="690" y="-170" width="100" height="40" as="geometry" />
        </mxCell>
        <mxCell id="HkWMvWSEuvSJZ3O5xZ28-88" value="Ubicació" style="ellipse;whiteSpace=wrap;html=1;align=center;" parent="1" vertex="1">
          <mxGeometry x="690" y="-112" width="100" height="40" as="geometry" />
        </mxCell>
        <mxCell id="HkWMvWSEuvSJZ3O5xZ28-89" value="" style="endArrow=none;html=1;rounded=0;" parent="1" source="HkWMvWSEuvSJZ3O5xZ28-86" target="HkWMvWSEuvSJZ3O5xZ28-87" edge="1">
          <mxGeometry relative="1" as="geometry">
            <mxPoint x="460" y="-100" as="sourcePoint" />
            <mxPoint x="620" y="-100" as="targetPoint" />
          </mxGeometry>
        </mxCell>
        <mxCell id="HkWMvWSEuvSJZ3O5xZ28-90" value="" style="endArrow=none;html=1;rounded=0;" parent="1" source="HkWMvWSEuvSJZ3O5xZ28-86" target="HkWMvWSEuvSJZ3O5xZ28-88" edge="1">
          <mxGeometry relative="1" as="geometry">
            <mxPoint x="460" y="-100" as="sourcePoint" />
            <mxPoint x="620" y="-100" as="targetPoint" />
          </mxGeometry>
        </mxCell>
        <mxCell id="HkWMvWSEuvSJZ3O5xZ28-91" value="&lt;b&gt;CASSOS&lt;/b&gt;" style="whiteSpace=wrap;html=1;align=center;" parent="1" vertex="1">
          <mxGeometry x="115" y="110" width="125" height="60" as="geometry" />
        </mxCell>
        <mxCell id="HkWMvWSEuvSJZ3O5xZ28-92" value="Numero" style="ellipse;whiteSpace=wrap;html=1;align=center;fontStyle=4;" parent="1" vertex="1">
          <mxGeometry x="320" y="90" width="100" height="40" as="geometry" />
        </mxCell>
        <mxCell id="HkWMvWSEuvSJZ3O5xZ28-93" value="Juzgat" style="ellipse;whiteSpace=wrap;html=1;align=center;" parent="1" vertex="1">
          <mxGeometry x="320" y="150" width="100" height="40" as="geometry" />
        </mxCell>
        <mxCell id="HkWMvWSEuvSJZ3O5xZ28-95" value="" style="endArrow=none;html=1;rounded=0;" parent="1" source="HkWMvWSEuvSJZ3O5xZ28-91" target="HkWMvWSEuvSJZ3O5xZ28-92" edge="1">
          <mxGeometry relative="1" as="geometry">
            <mxPoint x="460" y="210" as="sourcePoint" />
            <mxPoint x="620" y="210" as="targetPoint" />
          </mxGeometry>
        </mxCell>
        <mxCell id="HkWMvWSEuvSJZ3O5xZ28-96" value="" style="endArrow=none;html=1;rounded=0;" parent="1" source="HkWMvWSEuvSJZ3O5xZ28-91" target="HkWMvWSEuvSJZ3O5xZ28-93" edge="1">
          <mxGeometry relative="1" as="geometry">
            <mxPoint x="460" y="210" as="sourcePoint" />
            <mxPoint x="350" y="170" as="targetPoint" />
          </mxGeometry>
        </mxCell>
        <mxCell id="HkWMvWSEuvSJZ3O5xZ28-99" value="&lt;font style=&quot;font-size: 24px;&quot;&gt;&lt;u&gt;ENTITATS&lt;/u&gt;&lt;br&gt;&lt;/font&gt;" style="text;html=1;align=center;verticalAlign=middle;resizable=0;points=[];autosize=1;strokeColor=none;fillColor=none;" parent="1" vertex="1">
          <mxGeometry x="340" y="-627" width="140" height="40" as="geometry" />
        </mxCell>
        <mxCell id="HkWMvWSEuvSJZ3O5xZ28-100" value="&lt;u&gt;&lt;font style=&quot;font-size: 24px;&quot;&gt;RELACIONS&lt;/font&gt;&lt;/u&gt;" style="text;html=1;align=center;verticalAlign=middle;resizable=0;points=[];autosize=1;strokeColor=none;fillColor=none;" parent="1" vertex="1">
          <mxGeometry x="300" y="280" width="160" height="40" as="geometry" />
        </mxCell>
        <mxCell id="HkWMvWSEuvSJZ3O5xZ28-101" value="&lt;b&gt;POLICIA&lt;/b&gt;" style="whiteSpace=wrap;html=1;align=center;" parent="1" vertex="1">
          <mxGeometry x="187" y="770" width="120" height="60" as="geometry" />
        </mxCell>
        <mxCell id="HkWMvWSEuvSJZ3O5xZ28-102" value="&lt;b&gt;ARMA&lt;/b&gt;" style="whiteSpace=wrap;html=1;align=center;" parent="1" vertex="1">
          <mxGeometry x="197" y="420" width="110" height="60" as="geometry" />
        </mxCell>
        <mxCell id="HkWMvWSEuvSJZ3O5xZ28-103" value="&lt;b&gt;DELINQÜENT&lt;/b&gt;" style="whiteSpace=wrap;html=1;align=center;" parent="1" vertex="1">
          <mxGeometry x="680" y="770" width="120" height="60" as="geometry" />
        </mxCell>
        <mxCell id="HkWMvWSEuvSJZ3O5xZ28-105" value="&lt;b&gt;CALABOZO&lt;/b&gt;" style="whiteSpace=wrap;html=1;align=center;" parent="1" vertex="1">
          <mxGeometry x="690" y="402" width="120" height="68" as="geometry" />
        </mxCell>
        <mxCell id="HkWMvWSEuvSJZ3O5xZ28-106" value="" style="shape=rhombus;perimeter=rhombusPerimeter;whiteSpace=wrap;html=1;align=center;" parent="1" vertex="1">
          <mxGeometry x="230" y="545" width="40" height="130" as="geometry" />
        </mxCell>
        <mxCell id="HkWMvWSEuvSJZ3O5xZ28-107" value="" style="shape=rhombus;perimeter=rhombusPerimeter;whiteSpace=wrap;html=1;align=center;" parent="1" vertex="1">
          <mxGeometry x="440" y="790" width="120" height="30" as="geometry" />
        </mxCell>
        <mxCell id="HkWMvWSEuvSJZ3O5xZ28-108" value="" style="shape=rhombus;perimeter=rhombusPerimeter;whiteSpace=wrap;html=1;align=center;" parent="1" vertex="1">
          <mxGeometry x="730" y="525" width="40" height="130" as="geometry" />
        </mxCell>
        <mxCell id="HkWMvWSEuvSJZ3O5xZ28-109" value="" style="shape=rhombus;perimeter=rhombusPerimeter;whiteSpace=wrap;html=1;align=center;rotation=30;fillColor=#000000;" parent="1" vertex="1">
          <mxGeometry x="240" y="955" width="120" height="30" as="geometry" />
        </mxCell>
        <mxCell id="HkWMvWSEuvSJZ3O5xZ28-110" value="" style="shape=rhombus;perimeter=rhombusPerimeter;whiteSpace=wrap;html=1;align=center;rotation=-30;fillColor=#000000;" parent="1" vertex="1">
          <mxGeometry x="630" y="950" width="120" height="30" as="geometry" />
        </mxCell>
        <mxCell id="HkWMvWSEuvSJZ3O5xZ28-111" value="" style="shape=rhombus;perimeter=rhombusPerimeter;whiteSpace=wrap;html=1;align=center;" parent="1" vertex="1">
          <mxGeometry x="85" y="752.5" width="30" height="95" as="geometry" />
        </mxCell>
        <mxCell id="HkWMvWSEuvSJZ3O5xZ28-114" value="" style="endArrow=none;html=1;rounded=0;entryX=0.5;entryY=0;entryDx=0;entryDy=0;" parent="1" target="HkWMvWSEuvSJZ3O5xZ28-111" edge="1">
          <mxGeometry relative="1" as="geometry">
            <mxPoint x="207" y="770" as="sourcePoint" />
            <mxPoint x="100" y="740" as="targetPoint" />
            <Array as="points">
              <mxPoint x="207" y="720" />
              <mxPoint x="100" y="720" />
            </Array>
          </mxGeometry>
        </mxCell>
        <mxCell id="HkWMvWSEuvSJZ3O5xZ28-115" value="" style="endArrow=none;html=1;rounded=0;exitX=0.183;exitY=1.05;exitDx=0;exitDy=0;exitPerimeter=0;" parent="1" source="HkWMvWSEuvSJZ3O5xZ28-101" edge="1">
          <mxGeometry relative="1" as="geometry">
            <mxPoint x="507" y="870" as="sourcePoint" />
            <mxPoint x="100" y="850" as="targetPoint" />
            <Array as="points">
              <mxPoint x="207" y="880" />
              <mxPoint x="100" y="880" />
            </Array>
          </mxGeometry>
        </mxCell>
        <mxCell id="HkWMvWSEuvSJZ3O5xZ28-116" value="" style="triangle;whiteSpace=wrap;html=1;direction=south;fillColor=#000000;" parent="1" vertex="1">
          <mxGeometry x="230" y="610" width="40" height="75" as="geometry" />
        </mxCell>
        <mxCell id="HkWMvWSEuvSJZ3O5xZ28-118" value="Jerarquia" style="text;html=1;align=center;verticalAlign=middle;resizable=0;points=[];autosize=1;strokeColor=none;fillColor=none;rotation=-85;" parent="1" vertex="1">
          <mxGeometry x="30" y="785" width="70" height="30" as="geometry" />
        </mxCell>
        <mxCell id="HkWMvWSEuvSJZ3O5xZ28-119" value="Arrest" style="text;html=1;align=center;verticalAlign=middle;resizable=0;points=[];autosize=1;strokeColor=none;fillColor=none;" parent="1" vertex="1">
          <mxGeometry x="470" y="760" width="60" height="30" as="geometry" />
        </mxCell>
        <mxCell id="HkWMvWSEuvSJZ3O5xZ28-120" value="NºPlaca" style="ellipse;whiteSpace=wrap;html=1;align=center;fontStyle=4;" parent="1" vertex="1">
          <mxGeometry x="310" y="710" width="70" height="30" as="geometry" />
        </mxCell>
        <mxCell id="HkWMvWSEuvSJZ3O5xZ28-121" value="Codi" style="ellipse;whiteSpace=wrap;html=1;align=center;fontStyle=4;" parent="1" vertex="1">
          <mxGeometry x="80" y="402" width="80" height="32" as="geometry" />
        </mxCell>
        <mxCell id="HkWMvWSEuvSJZ3O5xZ28-122" value="" style="endArrow=none;html=1;rounded=0;" parent="1" source="HkWMvWSEuvSJZ3O5xZ28-102" target="HkWMvWSEuvSJZ3O5xZ28-121" edge="1">
          <mxGeometry relative="1" as="geometry">
            <mxPoint x="460" y="670" as="sourcePoint" />
            <mxPoint x="620" y="670" as="targetPoint" />
          </mxGeometry>
        </mxCell>
        <mxCell id="HkWMvWSEuvSJZ3O5xZ28-123" value="" style="endArrow=none;html=1;rounded=0;" parent="1" source="HkWMvWSEuvSJZ3O5xZ28-102" target="HkWMvWSEuvSJZ3O5xZ28-106" edge="1">
          <mxGeometry relative="1" as="geometry">
            <mxPoint x="460" y="570" as="sourcePoint" />
            <mxPoint x="620" y="570" as="targetPoint" />
          </mxGeometry>
        </mxCell>
        <mxCell id="HkWMvWSEuvSJZ3O5xZ28-124" value="Habilidad" style="ellipse;whiteSpace=wrap;html=1;align=center;" parent="1" vertex="1">
          <mxGeometry x="80" y="600" width="80" height="30" as="geometry" />
        </mxCell>
        <mxCell id="HkWMvWSEuvSJZ3O5xZ28-129" value="" style="endArrow=none;html=1;rounded=0;" parent="1" source="HkWMvWSEuvSJZ3O5xZ28-124" target="HkWMvWSEuvSJZ3O5xZ28-106" edge="1">
          <mxGeometry relative="1" as="geometry">
            <mxPoint x="460" y="670" as="sourcePoint" />
            <mxPoint x="620" y="670" as="targetPoint" />
          </mxGeometry>
        </mxCell>
        <mxCell id="HkWMvWSEuvSJZ3O5xZ28-130" value="" style="endArrow=none;html=1;rounded=0;" parent="1" source="HkWMvWSEuvSJZ3O5xZ28-106" target="HkWMvWSEuvSJZ3O5xZ28-101" edge="1">
          <mxGeometry relative="1" as="geometry">
            <mxPoint x="460" y="670" as="sourcePoint" />
            <mxPoint x="620" y="670" as="targetPoint" />
          </mxGeometry>
        </mxCell>
        <mxCell id="HkWMvWSEuvSJZ3O5xZ28-131" value="" style="endArrow=none;html=1;rounded=0;" parent="1" source="HkWMvWSEuvSJZ3O5xZ28-101" target="HkWMvWSEuvSJZ3O5xZ28-120" edge="1">
          <mxGeometry relative="1" as="geometry">
            <mxPoint x="460" y="670" as="sourcePoint" />
            <mxPoint x="620" y="670" as="targetPoint" />
          </mxGeometry>
        </mxCell>
        <mxCell id="HkWMvWSEuvSJZ3O5xZ28-132" value="" style="endArrow=none;html=1;rounded=0;" parent="1" source="HkWMvWSEuvSJZ3O5xZ28-101" target="HkWMvWSEuvSJZ3O5xZ28-107" edge="1">
          <mxGeometry relative="1" as="geometry">
            <mxPoint x="460" y="770" as="sourcePoint" />
            <mxPoint x="620" y="770" as="targetPoint" />
          </mxGeometry>
        </mxCell>
        <mxCell id="HkWMvWSEuvSJZ3O5xZ28-133" value="" style="endArrow=none;html=1;rounded=0;" parent="1" source="HkWMvWSEuvSJZ3O5xZ28-107" target="HkWMvWSEuvSJZ3O5xZ28-103" edge="1">
          <mxGeometry relative="1" as="geometry">
            <mxPoint x="460" y="770" as="sourcePoint" />
            <mxPoint x="620" y="770" as="targetPoint" />
          </mxGeometry>
        </mxCell>
        <mxCell id="HkWMvWSEuvSJZ3O5xZ28-134" value="" style="endArrow=none;html=1;rounded=0;" parent="1" target="HkWMvWSEuvSJZ3O5xZ28-103" edge="1">
          <mxGeometry relative="1" as="geometry">
            <mxPoint x="750" y="660" as="sourcePoint" />
            <mxPoint x="620" y="670" as="targetPoint" />
          </mxGeometry>
        </mxCell>
        <mxCell id="HkWMvWSEuvSJZ3O5xZ28-135" value="" style="endArrow=none;html=1;rounded=0;" parent="1" source="HkWMvWSEuvSJZ3O5xZ28-105" target="HkWMvWSEuvSJZ3O5xZ28-108" edge="1">
          <mxGeometry relative="1" as="geometry">
            <mxPoint x="460" y="570" as="sourcePoint" />
            <mxPoint x="620" y="570" as="targetPoint" />
          </mxGeometry>
        </mxCell>
        <mxCell id="HkWMvWSEuvSJZ3O5xZ28-136" value="" style="endArrow=none;html=1;rounded=0;entryX=0;entryY=0.5;entryDx=0;entryDy=0;" parent="1" source="HkWMvWSEuvSJZ3O5xZ28-101" target="HkWMvWSEuvSJZ3O5xZ28-109" edge="1">
          <mxGeometry relative="1" as="geometry">
            <mxPoint x="460" y="970" as="sourcePoint" />
            <mxPoint x="620" y="970" as="targetPoint" />
          </mxGeometry>
        </mxCell>
        <mxCell id="HkWMvWSEuvSJZ3O5xZ28-137" value="" style="endArrow=none;html=1;rounded=0;exitX=1;exitY=0.5;exitDx=0;exitDy=0;" parent="1" source="HkWMvWSEuvSJZ3O5xZ28-109" target="HkWMvWSEuvSJZ3O5xZ28-168" edge="1">
          <mxGeometry relative="1" as="geometry">
            <mxPoint x="460" y="970" as="sourcePoint" />
            <mxPoint x="425" y="1024.2494346423687" as="targetPoint" />
          </mxGeometry>
        </mxCell>
        <mxCell id="HkWMvWSEuvSJZ3O5xZ28-138" value="" style="endArrow=none;html=1;rounded=0;entryX=0;entryY=0.5;entryDx=0;entryDy=0;" parent="1" source="HkWMvWSEuvSJZ3O5xZ28-168" target="HkWMvWSEuvSJZ3O5xZ28-110" edge="1">
          <mxGeometry relative="1" as="geometry">
            <mxPoint x="550" y="1024.241187450884" as="sourcePoint" />
            <mxPoint x="640" y="1000" as="targetPoint" />
          </mxGeometry>
        </mxCell>
        <mxCell id="HkWMvWSEuvSJZ3O5xZ28-139" value="" style="endArrow=none;html=1;rounded=0;exitX=1;exitY=0.5;exitDx=0;exitDy=0;" parent="1" source="HkWMvWSEuvSJZ3O5xZ28-110" target="HkWMvWSEuvSJZ3O5xZ28-103" edge="1">
          <mxGeometry relative="1" as="geometry">
            <mxPoint x="460" y="970" as="sourcePoint" />
            <mxPoint x="620" y="970" as="targetPoint" />
          </mxGeometry>
        </mxCell>
        <mxCell id="HkWMvWSEuvSJZ3O5xZ28-140" value="Codi" style="ellipse;whiteSpace=wrap;html=1;align=center;fontStyle=4;" parent="1" vertex="1">
          <mxGeometry x="535" y="380" width="90" height="30" as="geometry" />
        </mxCell>
        <mxCell id="HkWMvWSEuvSJZ3O5xZ28-141" value="" style="endArrow=none;html=1;rounded=0;" parent="1" source="HkWMvWSEuvSJZ3O5xZ28-140" target="HkWMvWSEuvSJZ3O5xZ28-105" edge="1">
          <mxGeometry relative="1" as="geometry">
            <mxPoint x="460" y="570" as="sourcePoint" />
            <mxPoint x="620" y="570" as="targetPoint" />
          </mxGeometry>
        </mxCell>
        <mxCell id="HkWMvWSEuvSJZ3O5xZ28-142" value="DNI" style="ellipse;whiteSpace=wrap;html=1;align=center;fontStyle=4;" parent="1" vertex="1">
          <mxGeometry x="580" y="710" width="80" height="20" as="geometry" />
        </mxCell>
        <mxCell id="HkWMvWSEuvSJZ3O5xZ28-143" value="" style="endArrow=none;html=1;rounded=0;" parent="1" source="HkWMvWSEuvSJZ3O5xZ28-142" target="HkWMvWSEuvSJZ3O5xZ28-103" edge="1">
          <mxGeometry relative="1" as="geometry">
            <mxPoint x="460" y="870" as="sourcePoint" />
            <mxPoint x="620" y="870" as="targetPoint" />
          </mxGeometry>
        </mxCell>
        <mxCell id="HkWMvWSEuvSJZ3O5xZ28-144" value="" style="endArrow=none;html=1;rounded=0;" parent="1" source="HkWMvWSEuvSJZ3O5xZ28-168" target="HkWMvWSEuvSJZ3O5xZ28-145" edge="1">
          <mxGeometry relative="1" as="geometry">
            <mxPoint x="487.5" y="1010" as="sourcePoint" />
            <mxPoint x="620" y="970" as="targetPoint" />
          </mxGeometry>
        </mxCell>
        <mxCell id="HkWMvWSEuvSJZ3O5xZ28-145" value="Numero" style="ellipse;whiteSpace=wrap;html=1;align=center;fontStyle=4;" parent="1" vertex="1">
          <mxGeometry x="450" y="940" width="90" height="30" as="geometry" />
        </mxCell>
        <mxCell id="HkWMvWSEuvSJZ3O5xZ28-146" value="Uso" style="text;html=1;align=center;verticalAlign=middle;resizable=0;points=[];autosize=1;strokeColor=none;fillColor=none;" parent="1" vertex="1">
          <mxGeometry x="270" y="600" width="40" height="30" as="geometry" />
        </mxCell>
        <mxCell id="HkWMvWSEuvSJZ3O5xZ28-147" value="" style="triangle;whiteSpace=wrap;html=1;direction=south;fillColor=#000000;" parent="1" vertex="1">
          <mxGeometry x="86.25" y="800" width="27.5" height="47.5" as="geometry" />
        </mxCell>
        <mxCell id="HkWMvWSEuvSJZ3O5xZ28-148" value="" style="triangle;whiteSpace=wrap;html=1;" parent="1" vertex="1">
          <mxGeometry x="500" y="790" width="60" height="30" as="geometry" />
        </mxCell>
        <mxCell id="HkWMvWSEuvSJZ3O5xZ28-149" value="Lloc&lt;br&gt;Detencio" style="text;html=1;align=center;verticalAlign=middle;resizable=0;points=[];autosize=1;strokeColor=none;fillColor=none;" parent="1" vertex="1">
          <mxGeometry x="670" y="570" width="70" height="40" as="geometry" />
        </mxCell>
        <mxCell id="HkWMvWSEuvSJZ3O5xZ28-150" value="Investiga" style="text;html=1;align=center;verticalAlign=middle;resizable=0;points=[];autosize=1;strokeColor=none;fillColor=none;" parent="1" vertex="1">
          <mxGeometry x="217" y="970" width="70" height="30" as="geometry" />
        </mxCell>
        <mxCell id="HkWMvWSEuvSJZ3O5xZ28-151" value="Inputat" style="text;html=1;align=center;verticalAlign=middle;resizable=0;points=[];autosize=1;strokeColor=none;fillColor=none;" parent="1" vertex="1">
          <mxGeometry x="700" y="970" width="60" height="30" as="geometry" />
        </mxCell>
        <mxCell id="HkWMvWSEuvSJZ3O5xZ28-153" value="" style="triangle;whiteSpace=wrap;html=1;direction=south;fillColor=#000000;" parent="1" vertex="1">
          <mxGeometry x="730" y="590" width="40" height="65" as="geometry" />
        </mxCell>
        <mxCell id="HkWMvWSEuvSJZ3O5xZ28-154" value="(0,n)" style="text;html=1;align=center;verticalAlign=middle;resizable=0;points=[];autosize=1;strokeColor=none;fillColor=none;" parent="1" vertex="1">
          <mxGeometry x="240" y="480" width="50" height="30" as="geometry" />
        </mxCell>
        <mxCell id="HkWMvWSEuvSJZ3O5xZ28-155" value="(0,1)" style="text;html=1;align=center;verticalAlign=middle;resizable=0;points=[];autosize=1;strokeColor=none;fillColor=none;" parent="1" vertex="1">
          <mxGeometry x="240" y="740" width="50" height="30" as="geometry" />
        </mxCell>
        <mxCell id="HkWMvWSEuvSJZ3O5xZ28-156" value="(0,n)" style="text;html=1;align=center;verticalAlign=middle;resizable=0;points=[];autosize=1;strokeColor=none;fillColor=none;" parent="1" vertex="1">
          <mxGeometry x="300" y="800" width="50" height="30" as="geometry" />
        </mxCell>
        <mxCell id="HkWMvWSEuvSJZ3O5xZ28-157" value="(0,1)" style="text;html=1;align=center;verticalAlign=middle;resizable=0;points=[];autosize=1;strokeColor=none;fillColor=none;" parent="1" vertex="1">
          <mxGeometry x="640" y="800" width="50" height="30" as="geometry" />
        </mxCell>
        <mxCell id="HkWMvWSEuvSJZ3O5xZ28-158" value="(0,1)" style="text;html=1;align=center;verticalAlign=middle;resizable=0;points=[];autosize=1;strokeColor=none;fillColor=none;" parent="1" vertex="1">
          <mxGeometry x="735" y="740" width="50" height="30" as="geometry" />
        </mxCell>
        <mxCell id="HkWMvWSEuvSJZ3O5xZ28-159" value="(0,4)" style="text;html=1;align=center;verticalAlign=middle;resizable=0;points=[];autosize=1;strokeColor=none;fillColor=none;" parent="1" vertex="1">
          <mxGeometry x="740" y="470" width="50" height="30" as="geometry" />
        </mxCell>
        <mxCell id="HkWMvWSEuvSJZ3O5xZ28-160" value="(1,1)" style="text;html=1;align=center;verticalAlign=middle;resizable=0;points=[];autosize=1;strokeColor=none;fillColor=none;" parent="1" vertex="1">
          <mxGeometry x="157" y="740" width="50" height="30" as="geometry" />
        </mxCell>
        <mxCell id="HkWMvWSEuvSJZ3O5xZ28-161" value="(0,n)" style="text;html=1;align=center;verticalAlign=middle;resizable=0;points=[];autosize=1;strokeColor=none;fillColor=none;" parent="1" vertex="1">
          <mxGeometry x="160" y="830" width="50" height="30" as="geometry" />
        </mxCell>
        <mxCell id="HkWMvWSEuvSJZ3O5xZ28-162" value="(1,n)" style="text;html=1;align=center;verticalAlign=middle;resizable=0;points=[];autosize=1;strokeColor=none;fillColor=none;" parent="1" vertex="1">
          <mxGeometry x="237" y="830" width="50" height="30" as="geometry" />
        </mxCell>
        <mxCell id="HkWMvWSEuvSJZ3O5xZ28-163" value="(0,n)" style="text;html=1;align=center;verticalAlign=middle;resizable=0;points=[];autosize=1;strokeColor=none;fillColor=none;" parent="1" vertex="1">
          <mxGeometry x="385" y="1015" width="50" height="30" as="geometry" />
        </mxCell>
        <mxCell id="HkWMvWSEuvSJZ3O5xZ28-164" value="(1,n)" style="text;html=1;align=center;verticalAlign=middle;resizable=0;points=[];autosize=1;strokeColor=none;fillColor=none;" parent="1" vertex="1">
          <mxGeometry x="550" y="1015" width="50" height="30" as="geometry" />
        </mxCell>
        <mxCell id="HkWMvWSEuvSJZ3O5xZ28-165" value="(1,n)" style="text;html=1;align=center;verticalAlign=middle;resizable=0;points=[];autosize=1;strokeColor=none;fillColor=none;" parent="1" vertex="1">
          <mxGeometry x="740" y="830" width="50" height="30" as="geometry" />
        </mxCell>
        <mxCell id="HkWMvWSEuvSJZ3O5xZ28-166" value="Jefe" style="text;html=1;align=center;verticalAlign=middle;resizable=0;points=[];autosize=1;strokeColor=none;fillColor=none;" parent="1" vertex="1">
          <mxGeometry x="130" y="690" width="50" height="30" as="geometry" />
        </mxCell>
        <mxCell id="HkWMvWSEuvSJZ3O5xZ28-167" value="Subordinado" style="text;html=1;align=center;verticalAlign=middle;resizable=0;points=[];autosize=1;strokeColor=none;fillColor=none;" parent="1" vertex="1">
          <mxGeometry x="105" y="878" width="90" height="30" as="geometry" />
        </mxCell>
        <mxCell id="HkWMvWSEuvSJZ3O5xZ28-168" value="&lt;b&gt;CASSOS&lt;/b&gt;" style="shape=ext;margin=3;double=1;whiteSpace=wrap;html=1;align=center;" parent="1" vertex="1">
          <mxGeometry x="430" y="1010" width="120" height="60" as="geometry" />
        </mxCell>
        <mxCell id="HkWMvWSEuvSJZ3O5xZ28-169" value="Data" style="ellipse;whiteSpace=wrap;html=1;align=center;" parent="1" vertex="1">
          <mxGeometry x="460" y="847.5" width="80" height="32.5" as="geometry" />
        </mxCell>
        <mxCell id="HkWMvWSEuvSJZ3O5xZ28-170" value="" style="endArrow=none;html=1;rounded=0;entryX=0;entryY=0.75;entryDx=0;entryDy=0;exitX=0.5;exitY=0;exitDx=0;exitDy=0;" parent="1" source="HkWMvWSEuvSJZ3O5xZ28-169" target="HkWMvWSEuvSJZ3O5xZ28-148" edge="1">
          <mxGeometry relative="1" as="geometry">
            <mxPoint x="460" y="870" as="sourcePoint" />
            <mxPoint x="620" y="870" as="targetPoint" />
          </mxGeometry>
        </mxCell>
        <mxCell id="cnhSzJxRNJrStLPLbk25-1" value="&lt;font style=&quot;font-size: 48px;&quot;&gt;&lt;b&gt;&lt;u&gt;DIAGRAMAS COMISSARIA&lt;/u&gt;&lt;/b&gt;&lt;/font&gt;" style="text;html=1;align=center;verticalAlign=middle;resizable=0;points=[];autosize=1;strokeColor=none;fillColor=none;" vertex="1" parent="1">
          <mxGeometry x="95" y="-912" width="640" height="70" as="geometry" />
        </mxCell>
      </root>
    </mxGraphModel>
  </diagram>
</mxfile>
